<mxfile host="Electron" agent="Mozilla/5.0 (Windows NT 10.0; Win64; x64) AppleWebKit/537.36 (KHTML, like Gecko) draw.io/27.0.9 Chrome/134.0.6998.205 Electron/35.4.0 Safari/537.36" version="27.0.9">
  <diagram name="Страница — 1" id="z3QUPvKPqgW59cXkZlQN">
    <mxGraphModel dx="1042" dy="1034" grid="0" gridSize="8" guides="1" tooltips="1" connect="1" arrows="1" fold="1" page="0" pageScale="1" pageWidth="827" pageHeight="1169" math="0" shadow="0">
      <root>
        <mxCell id="0" />
        <mxCell id="1" parent="0" />
        <mxCell id="4DkmXCHOskcrPTcZob5K-31" value="" style="edgeStyle=orthogonalEdgeStyle;rounded=0;orthogonalLoop=1;jettySize=auto;html=1;" parent="1" source="4DkmXCHOskcrPTcZob5K-5" target="4DkmXCHOskcrPTcZob5K-24" edge="1">
          <mxGeometry relative="1" as="geometry" />
        </mxCell>
        <mxCell id="4DkmXCHOskcrPTcZob5K-33" style="edgeStyle=orthogonalEdgeStyle;rounded=0;orthogonalLoop=1;jettySize=auto;html=1;exitX=1;exitY=0.5;exitDx=0;exitDy=0;entryX=0.5;entryY=0;entryDx=0;entryDy=0;" parent="1" source="4DkmXCHOskcrPTcZob5K-5" target="4DkmXCHOskcrPTcZob5K-25" edge="1">
          <mxGeometry relative="1" as="geometry" />
        </mxCell>
        <mxCell id="4DkmXCHOskcrPTcZob5K-5" value="Вход" style="whiteSpace=wrap;html=1;aspect=fixed;" parent="1" vertex="1">
          <mxGeometry x="10" y="135" width="70" height="70" as="geometry" />
        </mxCell>
        <mxCell id="4DkmXCHOskcrPTcZob5K-71" style="edgeStyle=orthogonalEdgeStyle;rounded=0;orthogonalLoop=1;jettySize=auto;html=1;exitX=1;exitY=0.5;exitDx=0;exitDy=0;" parent="1" source="4DkmXCHOskcrPTcZob5K-9" target="4DkmXCHOskcrPTcZob5K-72" edge="1">
          <mxGeometry relative="1" as="geometry">
            <mxPoint x="559.9999999999998" y="169.84210526315792" as="targetPoint" />
          </mxGeometry>
        </mxCell>
        <mxCell id="4DkmXCHOskcrPTcZob5K-110" style="edgeStyle=orthogonalEdgeStyle;rounded=0;orthogonalLoop=1;jettySize=auto;html=1;exitX=1;exitY=0.25;exitDx=0;exitDy=0;entryX=0.5;entryY=1;entryDx=0;entryDy=0;" parent="1" source="4DkmXCHOskcrPTcZob5K-9" target="4DkmXCHOskcrPTcZob5K-94" edge="1">
          <mxGeometry relative="1" as="geometry" />
        </mxCell>
        <mxCell id="4DkmXCHOskcrPTcZob5K-126" style="edgeStyle=orthogonalEdgeStyle;rounded=0;orthogonalLoop=1;jettySize=auto;html=1;exitX=1;exitY=0.75;exitDx=0;exitDy=0;entryX=0;entryY=0.5;entryDx=0;entryDy=0;" parent="1" source="4DkmXCHOskcrPTcZob5K-9" target="4DkmXCHOskcrPTcZob5K-124" edge="1">
          <mxGeometry relative="1" as="geometry">
            <mxPoint x="496" y="248" as="targetPoint" />
          </mxGeometry>
        </mxCell>
        <mxCell id="4DkmXCHOskcrPTcZob5K-137" style="edgeStyle=orthogonalEdgeStyle;rounded=0;orthogonalLoop=1;jettySize=auto;html=1;exitX=0.25;exitY=1;exitDx=0;exitDy=0;entryX=0.5;entryY=0;entryDx=0;entryDy=0;fillColor=#e51400;strokeColor=#B20000;" parent="1" source="4DkmXCHOskcrPTcZob5K-9" target="4DkmXCHOskcrPTcZob5K-136" edge="1">
          <mxGeometry relative="1" as="geometry" />
        </mxCell>
        <mxCell id="URlHq-7hAZF5maCHjruH-2" style="edgeStyle=orthogonalEdgeStyle;rounded=0;orthogonalLoop=1;jettySize=auto;html=1;exitX=1;exitY=0.5;exitDx=0;exitDy=0;" parent="1" source="4DkmXCHOskcrPTcZob5K-94" target="4DkmXCHOskcrPTcZob5K-70" edge="1">
          <mxGeometry relative="1" as="geometry" />
        </mxCell>
        <mxCell id="URlHq-7hAZF5maCHjruH-3" style="edgeStyle=orthogonalEdgeStyle;rounded=0;orthogonalLoop=1;jettySize=auto;html=1;exitX=0.5;exitY=0;exitDx=0;exitDy=0;entryX=0;entryY=0.5;entryDx=0;entryDy=0;" parent="1" source="4DkmXCHOskcrPTcZob5K-9" target="4DkmXCHOskcrPTcZob5K-107" edge="1">
          <mxGeometry relative="1" as="geometry" />
        </mxCell>
        <mxCell id="4DkmXCHOskcrPTcZob5K-9" value="осн. страница" style="whiteSpace=wrap;html=1;aspect=fixed;fillColor=none;" parent="1" vertex="1">
          <mxGeometry x="280" y="135" width="70" height="70" as="geometry" />
        </mxCell>
        <mxCell id="4DkmXCHOskcrPTcZob5K-138" style="edgeStyle=orthogonalEdgeStyle;rounded=0;orthogonalLoop=1;jettySize=auto;html=1;exitX=1;exitY=0.5;exitDx=0;exitDy=0;entryX=0;entryY=0;entryDx=0;entryDy=0;fillColor=#6d8764;strokeColor=#3A5431;" parent="1" source="4DkmXCHOskcrPTcZob5K-24" target="4DkmXCHOskcrPTcZob5K-9" edge="1">
          <mxGeometry relative="1" as="geometry" />
        </mxCell>
        <mxCell id="4DkmXCHOskcrPTcZob5K-24" value="менеджер" style="rounded=1;whiteSpace=wrap;html=1;" parent="1" vertex="1">
          <mxGeometry x="120" y="55" width="100" height="60" as="geometry" />
        </mxCell>
        <mxCell id="4DkmXCHOskcrPTcZob5K-25" value="админ" style="rounded=1;whiteSpace=wrap;html=1;" parent="1" vertex="1">
          <mxGeometry x="120" y="230" width="100" height="60" as="geometry" />
        </mxCell>
        <mxCell id="4DkmXCHOskcrPTcZob5K-29" style="edgeStyle=orthogonalEdgeStyle;rounded=0;orthogonalLoop=1;jettySize=auto;html=1;exitX=1;exitY=0.5;exitDx=0;exitDy=0;entryX=0;entryY=1;entryDx=0;entryDy=0;fillColor=#e51400;strokeColor=#B20000;" parent="1" source="4DkmXCHOskcrPTcZob5K-25" target="4DkmXCHOskcrPTcZob5K-9" edge="1">
          <mxGeometry relative="1" as="geometry" />
        </mxCell>
        <mxCell id="4DkmXCHOskcrPTcZob5K-70" value="предложения&lt;div&gt;(рекоменд. товар)&lt;/div&gt;" style="whiteSpace=wrap;html=1;aspect=fixed;" parent="1" vertex="1">
          <mxGeometry x="571" y="-72" width="92" height="92" as="geometry" />
        </mxCell>
        <mxCell id="4DkmXCHOskcrPTcZob5K-72" value="3 страница&lt;br&gt;(каталог)" style="whiteSpace=wrap;html=1;aspect=fixed;fillColor=none;" parent="1" vertex="1">
          <mxGeometry x="543.9999999999998" y="130.00210526315792" width="80" height="80" as="geometry" />
        </mxCell>
        <mxCell id="4DkmXCHOskcrPTcZob5K-123" style="edgeStyle=orthogonalEdgeStyle;rounded=0;orthogonalLoop=1;jettySize=auto;html=1;exitX=0.5;exitY=0;exitDx=0;exitDy=0;entryX=0.5;entryY=1;entryDx=0;entryDy=0;" parent="1" source="4DkmXCHOskcrPTcZob5K-94" target="4DkmXCHOskcrPTcZob5K-107" edge="1">
          <mxGeometry relative="1" as="geometry" />
        </mxCell>
        <mxCell id="4DkmXCHOskcrPTcZob5K-94" value="&lt;div&gt;(2 страница)&lt;/div&gt;оформить&lt;div&gt;заказ&lt;/div&gt;" style="rounded=1;whiteSpace=wrap;html=1;" parent="1" vertex="1">
          <mxGeometry x="432" y="69" width="96" height="46" as="geometry" />
        </mxCell>
        <mxCell id="4DkmXCHOskcrPTcZob5K-107" value="&lt;div&gt;1 страница&lt;/div&gt;(заказы)" style="rounded=1;whiteSpace=wrap;html=1;" parent="1" vertex="1">
          <mxGeometry x="442" y="-45" width="76" height="38" as="geometry" />
        </mxCell>
        <mxCell id="4DkmXCHOskcrPTcZob5K-114" value="" style="endArrow=classic;startArrow=classic;html=1;rounded=0;entryX=0.75;entryY=1;entryDx=0;entryDy=0;exitX=0;exitY=0.25;exitDx=0;exitDy=0;" parent="1" source="4DkmXCHOskcrPTcZob5K-72" target="4DkmXCHOskcrPTcZob5K-94" edge="1">
          <mxGeometry width="50" height="50" relative="1" as="geometry">
            <mxPoint x="488" y="202" as="sourcePoint" />
            <mxPoint x="538" y="152" as="targetPoint" />
            <Array as="points">
              <mxPoint x="504" y="150" />
            </Array>
          </mxGeometry>
        </mxCell>
        <mxCell id="4DkmXCHOskcrPTcZob5K-131" style="edgeStyle=orthogonalEdgeStyle;rounded=0;orthogonalLoop=1;jettySize=auto;html=1;exitX=1;exitY=0.25;exitDx=0;exitDy=0;" parent="1" source="4DkmXCHOskcrPTcZob5K-124" target="4DkmXCHOskcrPTcZob5K-132" edge="1">
          <mxGeometry relative="1" as="geometry">
            <mxPoint x="720" y="244.57894736842104" as="targetPoint" />
          </mxGeometry>
        </mxCell>
        <mxCell id="4DkmXCHOskcrPTcZob5K-124" value="4 страница&lt;br&gt;(список&lt;div&gt;партнеров)&lt;/div&gt;" style="whiteSpace=wrap;html=1;aspect=fixed;fillColor=none;" parent="1" vertex="1">
          <mxGeometry x="543.9999999999998" y="225.00210526315792" width="80" height="80" as="geometry" />
        </mxCell>
        <mxCell id="4DkmXCHOskcrPTcZob5K-132" value="история заказов" style="rounded=1;whiteSpace=wrap;html=1;" parent="1" vertex="1">
          <mxGeometry x="706" y="159.42000000000002" width="92" height="50.58" as="geometry" />
        </mxCell>
        <mxCell id="4DkmXCHOskcrPTcZob5K-136" value="5 страница&lt;br&gt;(Пользователи)" style="whiteSpace=wrap;html=1;aspect=fixed;fillColor=none;" parent="1" vertex="1">
          <mxGeometry x="346" y="358" width="96" height="96" as="geometry" />
        </mxCell>
      </root>
    </mxGraphModel>
  </diagram>
</mxfile>
